<?xml version="1.0" encoding="UTF-8" standalone="no"?>
<svg width="16px" height="13px" viewBox="0 0 16 13" version="1.1" xmlns="http://www.w3.org/2000/svg" xmlns:xlink="http://www.w3.org/1999/xlink" xmlns:sketch="http://www.bohemiancoding.com/sketch/ns">
    <!-- Generator: Sketch 3.5.1 (25234) - http://www.bohemiancoding.com/sketch -->
    <title>TwitterLogo_white_16</title>
    <desc>Created with Sketch.</desc>
    <defs>
        <path id="path-1" d="M0.00350364964,0.048 L15.9643796,0.048 L15.9643796,13.0183942 L0.00350364964,13.0183942"></path>
    </defs>
    <g id="Page-1" stroke="none" stroke-width="1" fill="none" fill-rule="evenodd" sketch:type="MSPage">
        <g id="Artboard-1" sketch:type="MSArtboardGroup" transform="translate(-58.000000, -27.000000)">
            <g id="TwitterLogo_white_16" sketch:type="MSLayerGroup" transform="translate(58.000000, 27.000000)">
                <mask id="mask-2" sketch:name="Clip 2" fill="white">
                    <use xlink:href="#path-1"></use>
                </mask>
                <g id="Clip-2"></g>
                <path d="M15.9643796,1.58382482 C15.3769927,1.84432117 14.7457518,2.02037956 14.0832117,2.09956204 C14.7594745,1.69418978 15.2787737,1.05232117 15.5233285,0.287532847 C14.8905109,0.662832117 14.1895474,0.935416058 13.4435036,1.08233577 C12.8460146,0.445781022 11.9948029,0.048 11.0527883,0.048 C9.24391241,0.048 7.77740146,1.51445255 7.77740146,3.32321168 C7.77740146,3.57991241 7.80642336,3.82989781 7.86224818,4.06960584 C5.14014599,3.9330219 2.72677372,2.62908029 1.11135766,0.647532847 C0.829430657,1.13127007 0.667912409,1.69389781 0.667912409,2.29413139 C0.667912409,3.43042336 1.24618978,4.43293431 2.1250219,5.02026277 C1.58808759,5.00327007 1.08309489,4.85594161 0.641459854,4.61062774 C0.641226277,4.62429197 0.641226277,4.6380146 0.641226277,4.65179562 C0.641226277,6.23871533 1.77021898,7.56251095 3.26855474,7.86335766 C2.99369343,7.93821898 2.70435036,7.97821898 2.40560584,7.97821898 C2.19456934,7.97821898 1.98937226,7.95772263 1.78943066,7.91947445 C2.20618978,9.22072993 3.41576642,10.1676496 4.8489927,10.1941022 C3.72805839,11.0725255 2.31579562,11.596146 0.781313869,11.596146 C0.516963504,11.596146 0.256233577,11.5806715 0,11.5504234 C1.44945985,12.479708 3.17109489,13.0218978 5.02072993,13.0218978 C11.0451387,13.0218978 14.3395036,8.03112409 14.3395036,3.7030073 C14.3395036,3.5609927 14.3363504,3.41973723 14.3300438,3.27929927 C14.969927,2.81751825 15.5252555,2.24064234 15.9643796,1.58382482" id="Fill-1" fill="#FFFFFF" sketch:type="MSShapeGroup" mask="url(#mask-2)"></path>
            </g>
        </g>
    </g>
</svg>